Body of Proof \"Pilot\" S01E01 aired 3/30/2011

Body of Proof follows the life and career of Medical Examiner Megan Hunt, once a high-flying neurosurgeon, who now works in Philadelphia\'s Medical Examiner\'s Office after a car accident abruptly ended her neurosurgery career. As a Medical Examiner Megan applies her vast medical knowledge, keen instincts and variously charming and scalpel-like personality to the task of solving the medical mysteries of the dead and bringing the people responsible for their deaths to justice.

General
Complete name                    : Body Of Proof Pilot HDTV_JHW.mp4
Format                           : MPEG-4
Format profile                   : Base Media / Version 2
Codec ID                         : mp42
File size                        : 411 MiB
Duration                         : 42mn 55s
Overall bit rate                 : 1 339 Kbps
Encoded date                     : UTC 2011-03-29 04:04:50
Tagged date                      : UTC 2011-03-29 04:04:50
Writing library                  : AVS 

Video
ID                               : 1
Format                           : AVC
Format/Info                      : Advanced Video Codec
Format profile                   : Main@L5.1
Format settings, CABAC           : Yes
Format settings, ReFrames        : 2 frames
Format settings, GOP             : M=3, N=9
Codec ID                         : avc1
Codec ID/Info                    : Advanced Video Coding
Duration                         : 42mn 55s
Bit rate mode                    : Variable
Bit rate                         : 1 205 Kbps
Width                            : 720 pixels
Height                           : 400 pixels
Display aspect ratio             : 16:9
Frame rate mode                  : Constant
Frame rate                       : 29.970 fps
Color space                      : YUV
Chroma subsampling               : 4:2:0
Bit depth                        : 8 bits
Scan type                        : Progressive
Bits/(Pixel*Frame)               : 0.140
Stream size                      : 370 MiB (90%)
Language                         : English
Encoded date                     : UTC 2011-03-29 04:04:50
Tagged date                      : UTC 2011-03-29 04:04:50

Audio
ID                               : 2
Format                           : AAC
Format/Info                      : Advanced Audio Codec
Format profile                   : LC
Codec ID                         : 40
Duration                         : 42mn 55s
Bit rate mode                    : Constant
Bit rate                         : 128 Kbps
Channel(s)                       : 2 channels
Channel positions                : Front: L R
Sampling rate                    : 48.0 KHz
Compression mode                 : Lossy
Stream size                      : 38.5 MiB (9%)
Language                         : English
Encoded date                     : UTC 2011-03-29 04:04:50
Tagged date                      : UTC 2011-03-29 04:04:50
 
http://img3.imageshack.us/img3/4048/vlcsnap2011033000h06m44.png
 
http://img687.imageshack.us/img687/5342/vlcsnap2011033000h07m02.png
 
http://img26.imageshack.us/img26/380/vlcsnap2011033000h07m40.png
 
http://img62.imageshack.us/img62/6189/vlcsnap2011033000h08m04.png
 
http://img828.imageshack.us/img828/8403/vlcsnap2011033000h08m19.png
 
http://img546.imageshack.us/img546/2565/vlcsnap2011033000h08m44.png